<mxfile host="app.diagrams.net" agent="Mozilla/5.0 (Macintosh; Intel Mac OS X 10_15_7) AppleWebKit/537.36 (KHTML, like Gecko) Chrome/128.0.0.0 Safari/537.36" version="24.7.8" pages="4">
  <diagram id="MaKQ-jVLBJ24d67uaGFl" name="整体设计">
    <mxGraphModel dx="1434" dy="785" grid="1" gridSize="10" guides="1" tooltips="1" connect="1" arrows="1" fold="1" page="1" pageScale="1" pageWidth="827" pageHeight="1169" math="0" shadow="0">
      <root>
        <mxCell id="0" />
        <mxCell id="1" parent="0" />
        <mxCell id="2ANFnI_Qd6PUBiNrqqMC-1" value="core" style="rounded=0;whiteSpace=wrap;html=1;verticalAlign=top;fillColor=#dae8fc;strokeColor=#6c8ebf;" parent="1" vertex="1">
          <mxGeometry x="120" y="310" width="1020" height="410" as="geometry" />
        </mxCell>
        <mxCell id="2ANFnI_Qd6PUBiNrqqMC-3" value="api" style="rounded=0;whiteSpace=wrap;html=1;verticalAlign=top;fillColor=#ffe6cc;labelBorderColor=none;strokeColor=#d79b00;" parent="1" vertex="1">
          <mxGeometry x="120" y="190" width="170" height="90" as="geometry" />
        </mxCell>
        <mxCell id="2ANFnI_Qd6PUBiNrqqMC-4" value="service" style="rounded=0;whiteSpace=wrap;html=1;verticalAlign=top;fillColor=#fff2cc;strokeColor=#d6b656;" parent="1" vertex="1">
          <mxGeometry x="300" y="190" width="300" height="90" as="geometry" />
        </mxCell>
        <mxCell id="2ANFnI_Qd6PUBiNrqqMC-5" value="admin（本次暂不实现）" style="rounded=0;whiteSpace=wrap;html=1;verticalAlign=top;fillColor=#f8cecc;strokeColor=#b85450;" parent="1" vertex="1">
          <mxGeometry x="610" y="190" width="230" height="90" as="geometry" />
        </mxCell>
        <mxCell id="2ANFnI_Qd6PUBiNrqqMC-6" value="友盟事件回调" style="rounded=0;whiteSpace=wrap;html=1;fillColor=#E6D0DE;labelBorderColor=none;" parent="1" vertex="1">
          <mxGeometry x="140" y="230" width="120" height="30" as="geometry" />
        </mxCell>
        <mxCell id="2ANFnI_Qd6PUBiNrqqMC-7" value="创建监听项目" style="rounded=0;whiteSpace=wrap;html=1;fillColor=#FFCCFF;" parent="1" vertex="1">
          <mxGeometry x="314" y="230" width="100" height="30" as="geometry" />
        </mxCell>
        <mxCell id="2ANFnI_Qd6PUBiNrqqMC-8" value="注册设备" style="rounded=0;whiteSpace=wrap;html=1;fillColor=#FFCCFF;" parent="1" vertex="1">
          <mxGeometry x="420" y="230" width="80" height="30" as="geometry" />
        </mxCell>
        <mxCell id="2ANFnI_Qd6PUBiNrqqMC-10" value="监听项目管理" style="rounded=0;whiteSpace=wrap;html=1;fillColor=#FFCCE6;" parent="1" vertex="1">
          <mxGeometry x="620" y="230" width="100" height="30" as="geometry" />
        </mxCell>
        <mxCell id="2ANFnI_Qd6PUBiNrqqMC-11" value="监听任务管理" style="rounded=0;whiteSpace=wrap;html=1;fillColor=#FFCCE6;" parent="1" vertex="1">
          <mxGeometry x="730" y="230" width="100" height="30" as="geometry" />
        </mxCell>
        <mxCell id="2ANFnI_Qd6PUBiNrqqMC-13" value="common" style="rounded=0;whiteSpace=wrap;html=1;verticalAlign=top;fillColor=#d5e8d4;strokeColor=#82b366;" parent="1" vertex="1">
          <mxGeometry x="120" y="740" width="1020" height="80" as="geometry" />
        </mxCell>
        <mxCell id="2ANFnI_Qd6PUBiNrqqMC-14" value="Exception相关" style="rounded=0;whiteSpace=wrap;html=1;fillColor=#B9E0A5;" parent="1" vertex="1">
          <mxGeometry x="220" y="770" width="360" height="30" as="geometry" />
        </mxCell>
        <mxCell id="2ANFnI_Qd6PUBiNrqqMC-15" value="Util相关" style="rounded=0;whiteSpace=wrap;html=1;fillColor=#B9E0A5;" parent="1" vertex="1">
          <mxGeometry x="720" y="770" width="360" height="30" as="geometry" />
        </mxCell>
        <mxCell id="2ANFnI_Qd6PUBiNrqqMC-16" value="监听项目相关&lt;div&gt;&lt;/div&gt;&lt;div&gt;EventListenProjectService&lt;/div&gt;" style="rounded=0;whiteSpace=wrap;html=1;fillColor=#A9C4EB;" parent="1" vertex="1">
          <mxGeometry x="200" y="380" width="390" height="40" as="geometry" />
        </mxCell>
        <mxCell id="2ANFnI_Qd6PUBiNrqqMC-17" value="设备事件相关&lt;div&gt;&lt;/div&gt;&lt;div&gt;DeviceEventService&lt;/div&gt;" style="rounded=0;whiteSpace=wrap;html=1;fillColor=#A9C4EB;" parent="1" vertex="1">
          <mxGeometry x="690" y="380" width="355" height="40" as="geometry" />
        </mxCell>
        <mxCell id="2ANFnI_Qd6PUBiNrqqMC-19" value="Model&lt;div&gt;&lt;/div&gt;" style="rounded=0;whiteSpace=wrap;html=1;verticalAlign=top;fillColor=#A9C4EB;" parent="1" vertex="1">
          <mxGeometry x="140" y="558.73" width="340" height="131.27" as="geometry" />
        </mxCell>
        <mxCell id="2ANFnI_Qd6PUBiNrqqMC-20" value="event_listen_project" style="rounded=0;whiteSpace=wrap;html=1;fillColor=#A9C4EB;" parent="1" vertex="1">
          <mxGeometry x="155" y="588.73" width="115" height="30" as="geometry" />
        </mxCell>
        <mxCell id="2ANFnI_Qd6PUBiNrqqMC-21" value="event_listen_project_task" style="rounded=0;whiteSpace=wrap;html=1;fillColor=#A9C4EB;" parent="1" vertex="1">
          <mxGeometry x="280" y="588.73" width="160" height="30" as="geometry" />
        </mxCell>
        <mxCell id="2ANFnI_Qd6PUBiNrqqMC-22" value="YCache(remote/local)&lt;div&gt;&lt;/div&gt;" style="rounded=0;whiteSpace=wrap;html=1;verticalAlign=top;fillColor=#A9C4EB;" parent="1" vertex="1">
          <mxGeometry x="500" y="559.73" width="240" height="70.27" as="geometry" />
        </mxCell>
        <mxCell id="2ANFnI_Qd6PUBiNrqqMC-24" value="ProjectAndTaskInfo" style="rounded=0;whiteSpace=wrap;html=1;fillColor=#A9C4EB;" parent="1" vertex="1">
          <mxGeometry x="540" y="589.73" width="160" height="30" as="geometry" />
        </mxCell>
        <mxCell id="2ANFnI_Qd6PUBiNrqqMC-25" value="KafkaProducer&lt;div&gt;&lt;/div&gt;" style="rounded=0;whiteSpace=wrap;html=1;verticalAlign=top;fillColor=#A9C4EB;" parent="1" vertex="1">
          <mxGeometry x="750" y="559.73" width="240" height="70.27" as="geometry" />
        </mxCell>
        <mxCell id="2ANFnI_Qd6PUBiNrqqMC-29" value="" style="endArrow=none;dashed=1;html=1;rounded=0;fillColor=#A9C4EB;" parent="1" edge="1">
          <mxGeometry width="50" height="50" relative="1" as="geometry">
            <mxPoint x="120" y="350" as="sourcePoint" />
            <mxPoint x="1140" y="350" as="targetPoint" />
          </mxGeometry>
        </mxCell>
        <mxCell id="2ANFnI_Qd6PUBiNrqqMC-31" value="接入层（service）" style="edgeLabel;html=1;align=center;verticalAlign=middle;resizable=0;points=[];fillColor=#A9C4EB;" parent="2ANFnI_Qd6PUBiNrqqMC-29" vertex="1" connectable="0">
          <mxGeometry x="-0.0471" relative="1" as="geometry">
            <mxPoint as="offset" />
          </mxGeometry>
        </mxCell>
        <mxCell id="2ANFnI_Qd6PUBiNrqqMC-30" value="" style="endArrow=none;dashed=1;html=1;rounded=0;entryX=0.996;entryY=0.343;entryDx=0;entryDy=0;entryPerimeter=0;exitX=0.004;exitY=0.35;exitDx=0;exitDy=0;exitPerimeter=0;fillColor=#A9C4EB;" parent="1" source="2ANFnI_Qd6PUBiNrqqMC-1" target="2ANFnI_Qd6PUBiNrqqMC-1" edge="1">
          <mxGeometry width="50" height="50" relative="1" as="geometry">
            <mxPoint x="120" y="420" as="sourcePoint" />
            <mxPoint x="170" y="370" as="targetPoint" />
          </mxGeometry>
        </mxCell>
        <mxCell id="2ANFnI_Qd6PUBiNrqqMC-32" value="支撑层" style="edgeLabel;html=1;align=center;verticalAlign=middle;resizable=0;points=[];fillColor=#A9C4EB;" parent="2ANFnI_Qd6PUBiNrqqMC-30" vertex="1" connectable="0">
          <mxGeometry x="-0.0569" relative="1" as="geometry">
            <mxPoint x="-2" as="offset" />
          </mxGeometry>
        </mxCell>
        <mxCell id="2ANFnI_Qd6PUBiNrqqMC-33" value="&lt;div&gt;监听项目相关&lt;/div&gt;&lt;div&gt;&lt;span style=&quot;background-color: initial;&quot;&gt;EventListenProjectManager&lt;/span&gt;&lt;br&gt;&lt;/div&gt;" style="rounded=0;whiteSpace=wrap;html=1;fillColor=#A9C4EB;" parent="1" vertex="1">
          <mxGeometry x="200" y="480" width="390" height="50" as="geometry" />
        </mxCell>
        <mxCell id="2ANFnI_Qd6PUBiNrqqMC-34" value="Config" style="rounded=0;whiteSpace=wrap;html=1;verticalAlign=top;fillColor=#A9C4EB;" parent="1" vertex="1">
          <mxGeometry x="1005" y="558.73" width="120" height="151.27" as="geometry" />
        </mxCell>
        <mxCell id="2ANFnI_Qd6PUBiNrqqMC-35" value="各数据源配置" style="rounded=0;whiteSpace=wrap;html=1;fillColor=#A9C4EB;" parent="1" vertex="1">
          <mxGeometry x="1020" y="589.73" width="90" height="30" as="geometry" />
        </mxCell>
        <mxCell id="2ANFnI_Qd6PUBiNrqqMC-39" value="" style="shape=curlyBracket;whiteSpace=wrap;html=1;rounded=1;flipH=1;labelPosition=right;verticalLabelPosition=middle;align=left;verticalAlign=middle;" parent="1" vertex="1">
          <mxGeometry x="1180" y="190" width="20" height="90" as="geometry" />
        </mxCell>
        <mxCell id="2ANFnI_Qd6PUBiNrqqMC-40" value="接口层" style="text;html=1;align=center;verticalAlign=middle;resizable=0;points=[];autosize=1;strokeColor=none;fillColor=none;" parent="1" vertex="1">
          <mxGeometry x="1200" y="220" width="60" height="30" as="geometry" />
        </mxCell>
        <mxCell id="2ANFnI_Qd6PUBiNrqqMC-43" value="核心逻辑层" style="text;html=1;align=center;verticalAlign=middle;resizable=0;points=[];autosize=1;strokeColor=none;fillColor=none;" parent="1" vertex="1">
          <mxGeometry x="1201" y="465" width="80" height="30" as="geometry" />
        </mxCell>
        <mxCell id="2ANFnI_Qd6PUBiNrqqMC-44" value="" style="shape=curlyBracket;whiteSpace=wrap;html=1;rounded=1;flipH=1;labelPosition=right;verticalLabelPosition=middle;align=left;verticalAlign=middle;" parent="1" vertex="1">
          <mxGeometry x="1180" y="310" width="20" height="400" as="geometry" />
        </mxCell>
        <mxCell id="2ANFnI_Qd6PUBiNrqqMC-45" value="工具层" style="text;html=1;align=center;verticalAlign=middle;resizable=0;points=[];autosize=1;strokeColor=none;fillColor=none;" parent="1" vertex="1">
          <mxGeometry x="1200" y="760" width="60" height="30" as="geometry" />
        </mxCell>
        <mxCell id="2ANFnI_Qd6PUBiNrqqMC-46" value="" style="shape=curlyBracket;whiteSpace=wrap;html=1;rounded=1;flipH=1;labelPosition=right;verticalLabelPosition=middle;align=left;verticalAlign=middle;" parent="1" vertex="1">
          <mxGeometry x="1180" y="740" width="20" height="80" as="geometry" />
        </mxCell>
        <mxCell id="V0bNTNqN08mJIJIuwhnt-2" value="注销设备" style="rounded=0;whiteSpace=wrap;html=1;fillColor=#FFCCFF;" parent="1" vertex="1">
          <mxGeometry x="505" y="230" width="75" height="30" as="geometry" />
        </mxCell>
        <mxCell id="V0bNTNqN08mJIJIuwhnt-4" value="&lt;div&gt;设备事件相关&lt;/div&gt;&lt;div&gt;DeviceEventManager&lt;/div&gt;" style="rounded=0;whiteSpace=wrap;html=1;fillColor=#A9C4EB;" parent="1" vertex="1">
          <mxGeometry x="690" y="480" width="360" height="50" as="geometry" />
        </mxCell>
        <mxCell id="V0bNTNqN08mJIJIuwhnt-5" value="event_listen_project_task_device" style="rounded=0;whiteSpace=wrap;html=1;fillColor=#A9C4EB;" parent="1" vertex="1">
          <mxGeometry x="155" y="640" width="185" height="30" as="geometry" />
        </mxCell>
        <mxCell id="V0bNTNqN08mJIJIuwhnt-7" value="scheduler" style="rounded=0;whiteSpace=wrap;html=1;verticalAlign=top;fillColor=#f8cecc;strokeColor=#b85450;" parent="1" vertex="1">
          <mxGeometry x="850" y="190" width="290" height="90" as="geometry" />
        </mxCell>
        <mxCell id="V0bNTNqN08mJIJIuwhnt-8" value="任务创建" style="rounded=0;whiteSpace=wrap;html=1;fillColor=#FFCCE6;" parent="1" vertex="1">
          <mxGeometry x="860" y="230" width="80" height="30" as="geometry" />
        </mxCell>
        <mxCell id="V0bNTNqN08mJIJIuwhnt-9" value="设备上传" style="rounded=0;whiteSpace=wrap;html=1;fillColor=#FFCCE6;" parent="1" vertex="1">
          <mxGeometry x="955" y="230" width="80" height="30" as="geometry" />
        </mxCell>
        <mxCell id="V0bNTNqN08mJIJIuwhnt-10" value="设备注销" style="rounded=0;whiteSpace=wrap;html=1;fillColor=#FFCCE6;" parent="1" vertex="1">
          <mxGeometry x="1045" y="230" width="80" height="30" as="geometry" />
        </mxCell>
        <mxCell id="V0bNTNqN08mJIJIuwhnt-12" value="DeviceEvent" style="rounded=0;whiteSpace=wrap;html=1;fillColor=#A9C4EB;" parent="1" vertex="1">
          <mxGeometry x="787.5" y="589.73" width="160" height="30" as="geometry" />
        </mxCell>
        <mxCell id="Wg7kcNNdGf3Nu2sa0nLW-1" value="DW-LOG&lt;div&gt;&lt;/div&gt;" style="rounded=0;whiteSpace=wrap;html=1;verticalAlign=top;fillColor=#A9C4EB;" vertex="1" parent="1">
          <mxGeometry x="750" y="639.73" width="240" height="70.27" as="geometry" />
        </mxCell>
        <mxCell id="Wg7kcNNdGf3Nu2sa0nLW-2" value="DeviceEvent" style="rounded=0;whiteSpace=wrap;html=1;fillColor=#A9C4EB;" vertex="1" parent="1">
          <mxGeometry x="787.5" y="670" width="160" height="30" as="geometry" />
        </mxCell>
      </root>
    </mxGraphModel>
  </diagram>
  <diagram name="任务创建" id="lJJsQC5AeHxFyqL9eE7w">
    <mxGraphModel dx="1026" dy="650" grid="1" gridSize="10" guides="1" tooltips="1" connect="1" arrows="1" fold="1" page="1" pageScale="1" pageWidth="827" pageHeight="1169" math="0" shadow="0">
      <root>
        <mxCell id="0" />
        <mxCell id="1" parent="0" />
        <mxCell id="tp32OpAXaXhF_AaR0TH7-10" value="任务创建" style="swimlane;childLayout=stackLayout;resizeParent=1;resizeParentMax=0;startSize=20;html=1;" vertex="1" parent="1">
          <mxGeometry x="414" y="90" width="470" height="850" as="geometry" />
        </mxCell>
        <mxCell id="tp32OpAXaXhF_AaR0TH7-11" value="智能时机" style="swimlane;startSize=20;html=1;" vertex="1" parent="tp32OpAXaXhF_AaR0TH7-10">
          <mxGeometry y="20" width="250" height="830" as="geometry" />
        </mxCell>
        <mxCell id="tp32OpAXaXhF_AaR0TH7-1" value="扫描开启中的project" style="rounded=0;whiteSpace=wrap;html=1;" vertex="1" parent="tp32OpAXaXhF_AaR0TH7-11">
          <mxGeometry x="64.99999999999955" y="170" width="120" height="60" as="geometry" />
        </mxCell>
        <mxCell id="tp32OpAXaXhF_AaR0TH7-4" style="edgeStyle=orthogonalEdgeStyle;rounded=0;orthogonalLoop=1;jettySize=auto;html=1;" edge="1" parent="tp32OpAXaXhF_AaR0TH7-11" source="tp32OpAXaXhF_AaR0TH7-3" target="tp32OpAXaXhF_AaR0TH7-1">
          <mxGeometry relative="1" as="geometry" />
        </mxCell>
        <mxCell id="tp32OpAXaXhF_AaR0TH7-3" value="定时任务触发&lt;div&gt;每日一次&lt;/div&gt;" style="strokeWidth=2;html=1;shape=mxgraph.flowchart.terminator;whiteSpace=wrap;" vertex="1" parent="tp32OpAXaXhF_AaR0TH7-11">
          <mxGeometry x="74.99999999999955" y="50" width="100" height="60" as="geometry" />
        </mxCell>
        <mxCell id="tp32OpAXaXhF_AaR0TH7-17" value="是否需要创建今日监听任务" style="rhombus;whiteSpace=wrap;html=1;" vertex="1" parent="tp32OpAXaXhF_AaR0TH7-11">
          <mxGeometry x="85" y="280" width="80" height="80" as="geometry" />
        </mxCell>
        <mxCell id="tp32OpAXaXhF_AaR0TH7-7" value="" style="edgeStyle=orthogonalEdgeStyle;rounded=0;orthogonalLoop=1;jettySize=auto;html=1;" edge="1" parent="tp32OpAXaXhF_AaR0TH7-11" source="tp32OpAXaXhF_AaR0TH7-1" target="tp32OpAXaXhF_AaR0TH7-17">
          <mxGeometry relative="1" as="geometry">
            <mxPoint x="125" y="280" as="targetPoint" />
            <Array as="points">
              <mxPoint x="125" y="255" />
              <mxPoint x="126" y="255" />
            </Array>
          </mxGeometry>
        </mxCell>
        <mxCell id="anq_18_NR9T66OEg5iH4-1" value="刷新ProjectAndTask缓存" style="rounded=0;whiteSpace=wrap;html=1;" vertex="1" parent="tp32OpAXaXhF_AaR0TH7-11">
          <mxGeometry x="64.99999999999955" y="720" width="120" height="60" as="geometry" />
        </mxCell>
        <mxCell id="tp32OpAXaXhF_AaR0TH7-13" value="友盟" style="swimlane;startSize=20;html=1;" vertex="1" parent="tp32OpAXaXhF_AaR0TH7-10">
          <mxGeometry x="250" y="20" width="220" height="830" as="geometry" />
        </mxCell>
        <mxCell id="tp32OpAXaXhF_AaR0TH7-9" value="" style="edgeStyle=orthogonalEdgeStyle;rounded=0;orthogonalLoop=1;jettySize=auto;html=1;" edge="1" parent="tp32OpAXaXhF_AaR0TH7-13" source="tp32OpAXaXhF_AaR0TH7-6" target="tp32OpAXaXhF_AaR0TH7-8">
          <mxGeometry relative="1" as="geometry" />
        </mxCell>
        <mxCell id="tp32OpAXaXhF_AaR0TH7-6" value="依据project_detail信息创建三方监听任务当天有效" style="rounded=0;whiteSpace=wrap;html=1;" vertex="1" parent="tp32OpAXaXhF_AaR0TH7-13">
          <mxGeometry x="-185.00000000000045" y="440" width="120" height="60" as="geometry" />
        </mxCell>
        <mxCell id="tp32OpAXaXhF_AaR0TH7-8" value="创建project_task记录" style="rounded=0;whiteSpace=wrap;html=1;" vertex="1" parent="tp32OpAXaXhF_AaR0TH7-13">
          <mxGeometry x="-185.00000000000045" y="580" width="120" height="60" as="geometry" />
        </mxCell>
        <mxCell id="tp32OpAXaXhF_AaR0TH7-15" value="创建任务" style="rounded=0;whiteSpace=wrap;html=1;" vertex="1" parent="tp32OpAXaXhF_AaR0TH7-13">
          <mxGeometry x="55.999999999999545" y="440" width="120" height="60" as="geometry" />
        </mxCell>
        <mxCell id="tp32OpAXaXhF_AaR0TH7-14" style="edgeStyle=orthogonalEdgeStyle;rounded=0;orthogonalLoop=1;jettySize=auto;html=1;entryX=0;entryY=0.5;entryDx=0;entryDy=0;" edge="1" parent="tp32OpAXaXhF_AaR0TH7-13" source="tp32OpAXaXhF_AaR0TH7-6" target="tp32OpAXaXhF_AaR0TH7-15">
          <mxGeometry relative="1" as="geometry">
            <mxPoint x="46" y="470" as="targetPoint" />
          </mxGeometry>
        </mxCell>
        <mxCell id="tp32OpAXaXhF_AaR0TH7-18" style="edgeStyle=orthogonalEdgeStyle;rounded=0;orthogonalLoop=1;jettySize=auto;html=1;entryX=0.5;entryY=0;entryDx=0;entryDy=0;" edge="1" parent="tp32OpAXaXhF_AaR0TH7-10" source="tp32OpAXaXhF_AaR0TH7-17" target="tp32OpAXaXhF_AaR0TH7-6">
          <mxGeometry relative="1" as="geometry" />
        </mxCell>
        <mxCell id="tp32OpAXaXhF_AaR0TH7-19" value="是" style="edgeLabel;html=1;align=center;verticalAlign=middle;resizable=0;points=[];" vertex="1" connectable="0" parent="tp32OpAXaXhF_AaR0TH7-18">
          <mxGeometry x="-0.175" y="1" relative="1" as="geometry">
            <mxPoint as="offset" />
          </mxGeometry>
        </mxCell>
        <mxCell id="anq_18_NR9T66OEg5iH4-2" value="" style="edgeStyle=orthogonalEdgeStyle;rounded=0;orthogonalLoop=1;jettySize=auto;html=1;" edge="1" parent="tp32OpAXaXhF_AaR0TH7-10" source="tp32OpAXaXhF_AaR0TH7-8" target="anq_18_NR9T66OEg5iH4-1">
          <mxGeometry relative="1" as="geometry" />
        </mxCell>
      </root>
    </mxGraphModel>
  </diagram>
  <diagram id="P_cgtNKd87fCZdHpkB3E" name="任务注销">
    <mxGraphModel dx="1026" dy="650" grid="1" gridSize="10" guides="1" tooltips="1" connect="1" arrows="1" fold="1" page="1" pageScale="1" pageWidth="827" pageHeight="1169" math="0" shadow="0">
      <root>
        <mxCell id="0" />
        <mxCell id="1" parent="0" />
        <mxCell id="Z6rWmLveplf5eZ_mxB3f-1" value="任务注销" style="swimlane;childLayout=stackLayout;resizeParent=1;resizeParentMax=0;startSize=20;html=1;" vertex="1" parent="1">
          <mxGeometry x="414" y="90" width="470" height="680" as="geometry" />
        </mxCell>
        <mxCell id="Z6rWmLveplf5eZ_mxB3f-2" value="智能时机" style="swimlane;startSize=20;html=1;" vertex="1" parent="Z6rWmLveplf5eZ_mxB3f-1">
          <mxGeometry y="20" width="250" height="660" as="geometry" />
        </mxCell>
        <mxCell id="Z6rWmLveplf5eZ_mxB3f-3" value="扫描task&lt;br&gt;过了监听时间&amp;amp;开启" style="rounded=0;whiteSpace=wrap;html=1;" vertex="1" parent="Z6rWmLveplf5eZ_mxB3f-2">
          <mxGeometry x="64.99999999999955" y="170" width="120" height="60" as="geometry" />
        </mxCell>
        <mxCell id="Z6rWmLveplf5eZ_mxB3f-4" style="edgeStyle=orthogonalEdgeStyle;rounded=0;orthogonalLoop=1;jettySize=auto;html=1;" edge="1" parent="Z6rWmLveplf5eZ_mxB3f-2" source="Z6rWmLveplf5eZ_mxB3f-5" target="Z6rWmLveplf5eZ_mxB3f-3">
          <mxGeometry relative="1" as="geometry" />
        </mxCell>
        <mxCell id="Z6rWmLveplf5eZ_mxB3f-5" value="定时任务触发&lt;div&gt;每10分一次&lt;/div&gt;" style="strokeWidth=2;html=1;shape=mxgraph.flowchart.terminator;whiteSpace=wrap;" vertex="1" parent="Z6rWmLveplf5eZ_mxB3f-2">
          <mxGeometry x="74.99999999999955" y="50" width="100" height="60" as="geometry" />
        </mxCell>
        <mxCell id="3rSp_yreMBaZOmkTSAQq-1" value="刷新ProjectAndTask缓存" style="rounded=0;whiteSpace=wrap;html=1;" vertex="1" parent="Z6rWmLveplf5eZ_mxB3f-2">
          <mxGeometry x="64.99999999999955" y="560" width="120" height="60" as="geometry" />
        </mxCell>
        <mxCell id="Z6rWmLveplf5eZ_mxB3f-8" value="友盟" style="swimlane;startSize=20;html=1;" vertex="1" parent="Z6rWmLveplf5eZ_mxB3f-1">
          <mxGeometry x="250" y="20" width="220" height="660" as="geometry" />
        </mxCell>
        <mxCell id="Z6rWmLveplf5eZ_mxB3f-9" value="" style="edgeStyle=orthogonalEdgeStyle;rounded=0;orthogonalLoop=1;jettySize=auto;html=1;" edge="1" parent="Z6rWmLveplf5eZ_mxB3f-8" source="Z6rWmLveplf5eZ_mxB3f-10" target="Z6rWmLveplf5eZ_mxB3f-11">
          <mxGeometry relative="1" as="geometry" />
        </mxCell>
        <mxCell id="Z6rWmLveplf5eZ_mxB3f-10" value="依据task表的三方id注销任务" style="rounded=0;whiteSpace=wrap;html=1;" vertex="1" parent="Z6rWmLveplf5eZ_mxB3f-8">
          <mxGeometry x="-185.00000000000045" y="290" width="120" height="60" as="geometry" />
        </mxCell>
        <mxCell id="Z6rWmLveplf5eZ_mxB3f-11" value="更新任务状态" style="rounded=0;whiteSpace=wrap;html=1;" vertex="1" parent="Z6rWmLveplf5eZ_mxB3f-8">
          <mxGeometry x="-185.00000000000045" y="430" width="120" height="60" as="geometry" />
        </mxCell>
        <mxCell id="Z6rWmLveplf5eZ_mxB3f-12" value="注销任务" style="rounded=0;whiteSpace=wrap;html=1;" vertex="1" parent="Z6rWmLveplf5eZ_mxB3f-8">
          <mxGeometry x="55.999999999999545" y="290" width="120" height="60" as="geometry" />
        </mxCell>
        <mxCell id="Z6rWmLveplf5eZ_mxB3f-13" style="edgeStyle=orthogonalEdgeStyle;rounded=0;orthogonalLoop=1;jettySize=auto;html=1;entryX=0;entryY=0.5;entryDx=0;entryDy=0;" edge="1" parent="Z6rWmLveplf5eZ_mxB3f-8" source="Z6rWmLveplf5eZ_mxB3f-10" target="Z6rWmLveplf5eZ_mxB3f-12">
          <mxGeometry relative="1" as="geometry">
            <mxPoint x="46" y="320" as="targetPoint" />
          </mxGeometry>
        </mxCell>
        <mxCell id="Z6rWmLveplf5eZ_mxB3f-14" style="edgeStyle=orthogonalEdgeStyle;rounded=0;orthogonalLoop=1;jettySize=auto;html=1;entryX=0.5;entryY=0;entryDx=0;entryDy=0;exitX=0.5;exitY=1;exitDx=0;exitDy=0;" edge="1" parent="Z6rWmLveplf5eZ_mxB3f-1" source="Z6rWmLveplf5eZ_mxB3f-3" target="Z6rWmLveplf5eZ_mxB3f-10">
          <mxGeometry relative="1" as="geometry">
            <mxPoint x="124.99999999999955" y="379.99999999999955" as="sourcePoint" />
          </mxGeometry>
        </mxCell>
        <mxCell id="3rSp_yreMBaZOmkTSAQq-2" value="" style="edgeStyle=orthogonalEdgeStyle;rounded=0;orthogonalLoop=1;jettySize=auto;html=1;exitX=0.5;exitY=1;exitDx=0;exitDy=0;" edge="1" parent="Z6rWmLveplf5eZ_mxB3f-1" target="3rSp_yreMBaZOmkTSAQq-1" source="Z6rWmLveplf5eZ_mxB3f-11">
          <mxGeometry relative="1" as="geometry">
            <mxPoint x="125" y="500" as="sourcePoint" />
          </mxGeometry>
        </mxCell>
      </root>
    </mxGraphModel>
  </diagram>
  <diagram name="注册设备" id="4hN5WTjMyCoKFp4bugpH">
    <mxGraphModel dx="1026" dy="650" grid="1" gridSize="10" guides="1" tooltips="1" connect="1" arrows="1" fold="1" page="1" pageScale="1" pageWidth="827" pageHeight="1169" math="0" shadow="0">
      <root>
        <mxCell id="-S21ItwJ1RXtoPgXGfRa-0" />
        <mxCell id="-S21ItwJ1RXtoPgXGfRa-1" parent="-S21ItwJ1RXtoPgXGfRa-0" />
        <mxCell id="-S21ItwJ1RXtoPgXGfRa-2" value="设备注册" style="swimlane;childLayout=stackLayout;resizeParent=1;resizeParentMax=0;startSize=20;html=1;" vertex="1" parent="-S21ItwJ1RXtoPgXGfRa-1">
          <mxGeometry x="414" y="90" width="690" height="840" as="geometry" />
        </mxCell>
        <mxCell id="-S21ItwJ1RXtoPgXGfRa-3" value="召回" style="swimlane;startSize=20;html=1;" vertex="1" parent="-S21ItwJ1RXtoPgXGfRa-2">
          <mxGeometry y="20" width="250" height="820" as="geometry" />
        </mxCell>
        <mxCell id="IZKaYeNLX64h0bSRi7I3-6" value="批量提交注册设备" style="rounded=0;whiteSpace=wrap;html=1;" vertex="1" parent="-S21ItwJ1RXtoPgXGfRa-3">
          <mxGeometry x="65" y="70" width="120" height="60" as="geometry" />
        </mxCell>
        <mxCell id="-S21ItwJ1RXtoPgXGfRa-8" value="&lt;meta charset=&quot;utf-8&quot;&gt;&lt;span style=&quot;color: rgb(0, 0, 0); font-family: Helvetica; font-size: 12px; font-style: normal; font-variant-ligatures: normal; font-variant-caps: normal; font-weight: 700; letter-spacing: normal; orphans: 2; text-align: center; text-indent: 0px; text-transform: none; widows: 2; word-spacing: 0px; -webkit-text-stroke-width: 0px; white-space: nowrap; background-color: rgb(251, 251, 251); text-decoration-thickness: initial; text-decoration-style: initial; text-decoration-color: initial; display: inline !important; float: none;&quot;&gt;智能时机&lt;/span&gt;" style="swimlane;startSize=20;html=1;" vertex="1" parent="-S21ItwJ1RXtoPgXGfRa-2">
          <mxGeometry x="250" y="20" width="220" height="820" as="geometry" />
        </mxCell>
        <mxCell id="IZKaYeNLX64h0bSRi7I3-16" value="" style="edgeStyle=orthogonalEdgeStyle;rounded=0;orthogonalLoop=1;jettySize=auto;html=1;" edge="1" parent="-S21ItwJ1RXtoPgXGfRa-8" source="IZKaYeNLX64h0bSRi7I3-12" target="IZKaYeNLX64h0bSRi7I3-15">
          <mxGeometry relative="1" as="geometry" />
        </mxCell>
        <mxCell id="IZKaYeNLX64h0bSRi7I3-12" value="从缓存获取&lt;div&gt;ProjectAndTask&lt;/div&gt;" style="rounded=0;whiteSpace=wrap;html=1;" vertex="1" parent="-S21ItwJ1RXtoPgXGfRa-8">
          <mxGeometry x="50" y="70" width="120" height="60" as="geometry" />
        </mxCell>
        <mxCell id="IZKaYeNLX64h0bSRi7I3-15" value="批量创建设备监听记录" style="rounded=0;whiteSpace=wrap;html=1;" vertex="1" parent="-S21ItwJ1RXtoPgXGfRa-8">
          <mxGeometry x="50" y="210" width="120" height="60" as="geometry" />
        </mxCell>
        <mxCell id="yxnSlM6CVnwgBhXoPxac-2" style="edgeStyle=orthogonalEdgeStyle;rounded=0;orthogonalLoop=1;jettySize=auto;html=1;entryX=0.5;entryY=0;entryDx=0;entryDy=0;" edge="1" parent="-S21ItwJ1RXtoPgXGfRa-8" source="yxnSlM6CVnwgBhXoPxac-0" target="yxnSlM6CVnwgBhXoPxac-1">
          <mxGeometry relative="1" as="geometry" />
        </mxCell>
        <mxCell id="yxnSlM6CVnwgBhXoPxac-0" value="定时任务触发&lt;div&gt;每10秒一次&lt;/div&gt;" style="strokeWidth=2;html=1;shape=mxgraph.flowchart.terminator;whiteSpace=wrap;" vertex="1" parent="-S21ItwJ1RXtoPgXGfRa-8">
          <mxGeometry x="59.999999999999545" y="320" width="100" height="60" as="geometry" />
        </mxCell>
        <mxCell id="yxnSlM6CVnwgBhXoPxac-4" value="" style="edgeStyle=orthogonalEdgeStyle;rounded=0;orthogonalLoop=1;jettySize=auto;html=1;" edge="1" parent="-S21ItwJ1RXtoPgXGfRa-8" source="yxnSlM6CVnwgBhXoPxac-1" target="yxnSlM6CVnwgBhXoPxac-3">
          <mxGeometry relative="1" as="geometry" />
        </mxCell>
        <mxCell id="yxnSlM6CVnwgBhXoPxac-1" value="批量扫描初始状态设备列表" style="rounded=0;whiteSpace=wrap;html=1;" vertex="1" parent="-S21ItwJ1RXtoPgXGfRa-8">
          <mxGeometry x="50" y="440" width="120" height="60" as="geometry" />
        </mxCell>
        <mxCell id="yxnSlM6CVnwgBhXoPxac-8" value="" style="edgeStyle=orthogonalEdgeStyle;rounded=0;orthogonalLoop=1;jettySize=auto;html=1;" edge="1" parent="-S21ItwJ1RXtoPgXGfRa-8" source="yxnSlM6CVnwgBhXoPxac-3" target="yxnSlM6CVnwgBhXoPxac-7">
          <mxGeometry relative="1" as="geometry" />
        </mxCell>
        <mxCell id="yxnSlM6CVnwgBhXoPxac-3" value="调用3方批量注册接口" style="rounded=0;whiteSpace=wrap;html=1;" vertex="1" parent="-S21ItwJ1RXtoPgXGfRa-8">
          <mxGeometry x="50" y="580" width="120" height="60" as="geometry" />
        </mxCell>
        <mxCell id="yxnSlM6CVnwgBhXoPxac-7" value="批量更新状态-已提交" style="rounded=0;whiteSpace=wrap;html=1;" vertex="1" parent="-S21ItwJ1RXtoPgXGfRa-8">
          <mxGeometry x="50" y="720" width="120" height="60" as="geometry" />
        </mxCell>
        <mxCell id="IZKaYeNLX64h0bSRi7I3-0" value="友盟" style="swimlane;startSize=20;html=1;" vertex="1" parent="-S21ItwJ1RXtoPgXGfRa-2">
          <mxGeometry x="470" y="20" width="220" height="820" as="geometry" />
        </mxCell>
        <mxCell id="yxnSlM6CVnwgBhXoPxac-5" value="注册设备" style="rounded=0;whiteSpace=wrap;html=1;" vertex="1" parent="IZKaYeNLX64h0bSRi7I3-0">
          <mxGeometry x="50" y="580" width="120" height="60" as="geometry" />
        </mxCell>
        <mxCell id="IZKaYeNLX64h0bSRi7I3-13" style="edgeStyle=orthogonalEdgeStyle;rounded=0;orthogonalLoop=1;jettySize=auto;html=1;entryX=0;entryY=0.5;entryDx=0;entryDy=0;" edge="1" parent="-S21ItwJ1RXtoPgXGfRa-2" source="IZKaYeNLX64h0bSRi7I3-6" target="IZKaYeNLX64h0bSRi7I3-12">
          <mxGeometry relative="1" as="geometry" />
        </mxCell>
        <mxCell id="IZKaYeNLX64h0bSRi7I3-14" value="projectId&lt;div&gt;mobileList&lt;/div&gt;&lt;div&gt;schedulerIdList&lt;/div&gt;" style="edgeLabel;html=1;align=center;verticalAlign=middle;resizable=0;points=[];" vertex="1" connectable="0" parent="IZKaYeNLX64h0bSRi7I3-13">
          <mxGeometry x="-0.0957" relative="1" as="geometry">
            <mxPoint as="offset" />
          </mxGeometry>
        </mxCell>
        <mxCell id="yxnSlM6CVnwgBhXoPxac-6" style="edgeStyle=orthogonalEdgeStyle;rounded=0;orthogonalLoop=1;jettySize=auto;html=1;entryX=0;entryY=0.5;entryDx=0;entryDy=0;" edge="1" parent="-S21ItwJ1RXtoPgXGfRa-2" source="yxnSlM6CVnwgBhXoPxac-3" target="yxnSlM6CVnwgBhXoPxac-5">
          <mxGeometry relative="1" as="geometry" />
        </mxCell>
      </root>
    </mxGraphModel>
  </diagram>
</mxfile>
